<svg width="24" height="24" viewBox="0 0 24 24" fill="none" xmlns="http://www.w3.org/2000/svg">
<path opacity="0.4" d="M9.04639 12.5925L6.1692 12.8469C5.52351 12.8469 5 12.3183 5 11.6663C5 11.0143 5.52351 10.4857 6.1692 10.4857L9.04639 10.7402C9.55293 10.7402 9.9636 11.1549 9.9636 11.6663C9.9636 12.1787 9.55293 12.5925 9.04639 12.5925Z" fill="#A2ADBE"/>
<path d="M18.708 12.5457C18.663 12.5911 18.495 12.783 18.3372 12.9424C17.4166 13.9405 15.0129 15.5726 13.7554 16.0721C13.5645 16.1517 13.0817 16.3214 12.8229 16.3334C12.576 16.3334 12.3402 16.276 12.1153 16.1629C11.8345 16.0044 11.6105 15.7542 11.4866 15.4595C11.4077 15.2556 11.2838 14.643 11.2838 14.6319C11.1608 13.9628 11.0938 12.8747 11.0938 11.6718C11.0938 10.5272 11.1608 9.4837 11.2617 8.80345C11.2728 8.79145 11.3967 8.03152 11.5316 7.77107C11.7785 7.29472 12.2613 7 12.778 7H12.8229C13.1598 7.01114 13.8674 7.30672 13.8674 7.317C15.0578 7.81648 17.4047 9.36976 18.3482 10.4021C18.3482 10.4021 18.6147 10.6677 18.7301 10.8331C18.9099 11.0713 18.9999 11.366 18.9999 11.6607C18.9999 11.9897 18.8989 12.2955 18.708 12.5457Z" fill="#A2ADBE"/>
</svg>
