<svg width="14" height="10" viewBox="0 0 14 10" fill="none" xmlns="http://www.w3.org/2000/svg">
<path opacity="0.4" d="M9.95362 3.7409L12.8308 3.48645C13.4765 3.48645 14 4.01506 14 4.66704C14 5.31902 13.4765 5.84763 12.8308 5.84763L9.95362 5.59318C9.44709 5.59318 9.03642 5.17851 9.03642 4.66704C9.03642 4.15471 9.44709 3.7409 9.95362 3.7409Z" fill="#DEE2E8"/>
<path d="M0.292039 3.78765C0.337008 3.74224 0.505006 3.55033 0.662823 3.39098C1.58342 2.39288 3.98715 0.760786 5.24459 0.261306C5.43549 0.181629 5.91827 0.0119944 6.17706 0C6.42396 0 6.65984 0.0574016 6.88469 0.170491C7.16553 0.328988 7.38953 0.579157 7.51341 0.873875C7.59231 1.07778 7.71619 1.69035 7.71619 1.70149C7.83922 2.3706 7.90625 3.45866 7.90625 4.66153C7.90625 5.80613 7.83922 6.84964 7.73825 7.52989C7.72722 7.54189 7.60334 8.30182 7.46844 8.56227C7.22153 9.03861 6.73875 9.33333 6.22203 9.33333H6.17706C5.84021 9.3222 5.13259 9.02662 5.13259 9.01634C3.94218 8.51686 1.5953 6.96359 0.651792 5.93122C0.651792 5.93122 0.385371 5.66563 0.269979 5.50028C0.0901022 5.2621 0.000164032 4.96738 0.000164032 4.67266C0.000164032 4.34368 0.101132 4.03782 0.292039 3.78765Z" fill="#DEE2E8"/>
</svg>
